<?xml version="1.0" encoding="UTF-8" standalone="no"?>
<!-- Created with Inkscape (http://www.inkscape.org/) -->

<svg
   width="49.624599mm"
   height="20.238106mm"
   viewBox="0 0 49.624599 20.238106"
   version="1.1"
   id="svg1"
   xml:space="preserve"
   xmlns="http://www.w3.org/2000/svg"
   xmlns:svg="http://www.w3.org/2000/svg"><defs
     id="defs1"><clipPath
       clipPathUnits="userSpaceOnUse"
       id="clipPath8"><path
         id="path9"
         style="fill:#ff0000;fill-opacity:1;fill-rule:nonzero;stroke:none;stroke-width:0.0751164"
         d="m -78.843552,74.885005 v 4.052618 h 3.172495 c -0.02458,-0.08606 -0.04102,-0.174008 -0.04783,-0.263641 -0.0095,-0.109522 -0.01717,-0.21936 -0.01335,-0.329368 0.005,-0.103963 0.01301,-0.208348 0.03888,-0.309561 0.0024,-0.0093 0.0053,-0.01824 0.0078,-0.02744 -0.03104,-0.0571 -0.05076,-0.133007 -0.05076,-0.228577 v -0.04944 -0.298559 -0.180308 c 0,-0.140918 0.0424,-0.239644 0.101818,-0.296945 -0.0046,-0.02504 -0.009,-0.05011 -0.01379,-0.07512 -0.0242,-0.130171 -0.04869,-0.260288 -0.07321,-0.3904 -0.02149,-0.111541 -0.04239,-0.223183 -0.06426,-0.33465 -0.01262,-0.05682 -0.02514,-0.113652 -0.03961,-0.170039 -0.06638,-0.258732 0.05233,-0.404676 0.190139,-0.401109 0.107182,0.0028 0.225935,0.09601 0.278165,0.297091 0.01463,0.05633 0.02698,0.113235 0.03961,0.170039 8.04e-4,0.0041 0.0015,0.0081 0.0024,0.01218 0.04367,-0.03441 0.101606,-0.05522 0.171799,-0.05824 0.03827,2e-5 0.07644,-0.0013 0.114435,-0.0063 0.09203,-0.01227 0.183813,-0.0288 0.276992,-0.0292 0.129206,-9.39e-4 0.257968,0.0095 0.38145,0.05062 0.01326,0.0048 0.02624,0.01007 0.03917,0.01526 0.0092,-0.0016 0.0185,-0.003 0.02773,-0.0046 0.08774,-0.0162 0.176634,-0.01946 0.265548,-0.0157 0.115013,0.0044 0.195401,0.033 0.290636,0.09859 0.0871,0.06978 0.140802,0.165012 0.184564,0.265548 0.04177,0.09645 0.05724,0.2004 0.06881,0.303987 0.01073,0.114955 0.0066,0.230468 0.0031,0.345652 -0.0028,0.108345 -0.0072,0.216556 -0.01218,0.32482 -0.0053,0.11494 -0.0099,0.230004 -0.01086,0.345066 -5.26e-4,0.124271 0.0028,0.248415 0.0054,0.372648 0.0027,0.111478 0.004,0.22304 0.0073,0.334503 0.0037,0.08501 0.01017,0.169847 0.01423,0.254838 0.0011,0.0762 0.01513,0.15133 0.02699,0.226376 0.003,0.01726 0.0049,0.03464 0.0076,0.05194 h 4.71781 v -4.052618 z m 4.436416,1.647573 c -0.02681,0.0043 -0.0536,0.0088 -0.0804,0.0132 -0.09224,0.01423 -0.184826,0.02507 -0.278018,0.03081 -0.08397,0.0063 -0.168126,0.01169 -0.252198,0.01643 -0.06286,0.0016 -0.136287,0.0045 -0.199088,-0.01614 0.0134,0.0714 0.02692,0.14278 0.0402,0.214199 0.02505,0.130387 0.0469,0.26127 0.0716,0.39172 7.51e-4,0.0039 0.0016,0.0077 0.0023,0.01159 0.07112,-0.04341 0.146321,-0.08004 0.222122,-0.114581 0.09844,-0.04372 0.201059,-0.07602 0.30516,-0.102992 0.09713,-0.02226 0.19575,-0.03729 0.295037,-0.04519 0.0269,-0.0018 0.05344,-0.0012 0.07966,7.51e-4 -0.01183,-0.0578 -0.02497,-0.115365 -0.04079,-0.172239 -0.0241,-0.07045 -0.06666,-0.13003 -0.116049,-0.18471 -0.01539,-0.01599 -0.03221,-0.02987 -0.04959,-0.04284 z m 0.239874,0.896408 c 8.87e-4,0.0017 0.0015,0.0035 0.0025,0.0051 0.01402,0.01964 0.0085,0.0096 0.0043,-0.0013 -0.0021,-0.0016 -0.0044,-0.0025 -0.0066,-0.0038 z m 0.04665,0.346387 c -9.99e-4,2.26e-4 -0.002,6.01e-4 -0.0031,8.79e-4 -0.0785,0.0174 -0.158769,0.0247 -0.238699,0.03198 -0.06425,0.0052 -0.12786,0.01515 -0.190726,0.0292 -0.05713,0.01221 -0.112382,0.03013 -0.165491,0.05428 -0.01544,0.01153 -0.0536,0.02442 -0.05722,0.04695 0.0021,0.02345 0.01277,-0.02508 0.0176,-0.01819 3e-4,3.76e-4 0.0015,0.0822 0.0019,0.08729 0.0041,0.06242 0.02155,0.122557 0.04152,0.181483 0.008,0.025 0.01879,0.04756 0.03286,0.06822 0.01542,-0.01227 0.03664,-0.02563 0.04724,-0.03418 0.07122,-0.06113 0.140122,-0.124727 0.210678,-0.186617 0.07443,-0.06588 0.152198,-0.127613 0.234151,-0.18383 0.02095,-0.01475 0.04291,-0.02787 0.06529,-0.0402 7.89e-4,-0.005 0.002,-0.0099 0.0028,-0.01496 6.76e-4,-0.0074 6.76e-4,-0.01486 0.0012,-0.0223 z m -0.541806,0.506742 c 0.0024,0.0027 0.0045,0.0055 0.007,0.0081 0.01349,0.0023 0.0041,-0.0029 -0.007,-0.0081 z m 0.709938,0.553104 c -0.0019,0.0033 -0.0038,0.0066 -0.0057,0.0098 0.0029,0.0029 0.0057,0.0059 0.0085,0.0088 -8.94e-4,-0.0062 -0.0019,-0.01241 -0.0028,-0.01863 z" /></clipPath></defs><g
     id="layer2"
     transform="translate(50.18266,18.098714)"><g
       id="g11"
       transform="matrix(0.904528,0,0,0.904528,41.557853,-79.656961)"><g
         id="text58"
         transform="matrix(3.5223107,0,0,3.5223107,185.83389,-195.71246)"><path
           style="color:#000000;-inkscape-font-specification:Submariner;fill:#3c3c3c;stroke-linejoin:round;stroke-miterlimit:0;stroke-dashoffset:0.856063;-inkscape-stroke:none;paint-order:markers stroke fill"
           d="m -77.522762,74.88495 c 0.43274,0 0.833496,0.131704 1.202266,0.395111 l -0.276578,0.327377 c -0.289748,-0.225777 -0.594548,-0.338666 -0.914399,-0.338666 -0.191911,0 -0.3556,0.05268 -0.491066,0.158044 -0.135467,0.1016 -0.2032,0.24083 -0.2032,0.417689 0,0.116652 0.02446,0.21637 0.07338,0.299155 0.05268,0.07902 0.139228,0.156163 0.259645,0.231422 0.124177,0.0715 0.302918,0.154282 0.536222,0.248356 0.391347,0.146755 0.666043,0.314207 0.824088,0.502355 0.158044,0.184384 0.237066,0.423333 0.237066,0.716844 0,0.342429 -0.118533,0.611481 -0.355599,0.807155 -0.237066,0.19191 -0.555037,0.287866 -0.953911,0.287866 -0.222014,0 -0.442148,-0.03199 -0.660399,-0.09596 -0.218252,-0.06397 -0.417689,-0.154285 -0.598311,-0.270934 l 0.237067,-0.378177 c 0.16557,0.116652 0.336785,0.206963 0.513644,0.270933 0.180622,0.06021 0.349955,0.09031 0.507999,0.09031 0.240829,0 0.43274,-0.05833 0.575733,-0.174978 0.146755,-0.116651 0.220133,-0.284103 0.220133,-0.502355 0,-0.127941 -0.02822,-0.238948 -0.08467,-0.333022 -0.05268,-0.09407 -0.146754,-0.182503 -0.282222,-0.265288 -0.131704,-0.08279 -0.317971,-0.171215 -0.5588,-0.265289 -0.361244,-0.142993 -0.619007,-0.297274 -0.773288,-0.462844 -0.150519,-0.169333 -0.225778,-0.383822 -0.225778,-0.643466 0,-0.210726 0.05268,-0.39323 0.158044,-0.547511 0.109126,-0.154281 0.254,-0.270933 0.434622,-0.349955 0.180622,-0.08279 0.38006,-0.124178 0.598311,-0.124178 z m 3.053641,1.190977 c 0.289747,0 0.50988,0.07526 0.660399,0.225778 0.154281,0.146755 0.231422,0.361244 0.231422,0.643466 v 1.269999 c 0,0.1016 0.0075,0.21637 0.02258,0.344311 0.01881,0.127941 0.03951,0.238948 0.06209,0.333022 h -0.428978 l -0.08467,-0.349956 h -0.01693 c -0.1016,0.124178 -0.223896,0.220134 -0.366888,0.287867 -0.13923,0.06773 -0.289749,0.1016 -0.451556,0.1016 -0.248355,0 -0.445911,-0.06773 -0.592666,-0.2032 -0.146755,-0.139229 -0.220133,-0.327378 -0.220133,-0.564444 0,-0.289748 0.111008,-0.517407 0.333022,-0.682977 0.225777,-0.165571 0.536222,-0.248356 0.931333,-0.248356 h 0.349955 v -0.220133 c 0,-0.19191 -0.04704,-0.336785 -0.141111,-0.434622 -0.09407,-0.09784 -0.223896,-0.146755 -0.389466,-0.146755 -0.116652,0 -0.252119,0.02258 -0.4064,0.06773 -0.154281,0.04515 -0.295392,0.105361 -0.423333,0.180622 l -0.158044,-0.344311 c 0.161807,-0.07526 0.34243,-0.137348 0.541866,-0.186266 0.199436,-0.04892 0.38194,-0.07338 0.547511,-0.07338 z m 0.169333,1.478843 c -0.297274,0 -0.52117,0.05268 -0.671689,0.158045 -0.146755,0.101599 -0.220133,0.248355 -0.220133,0.440266 0,0.135467 0.03387,0.24083 0.1016,0.316089 0.0715,0.07526 0.176859,0.112888 0.316089,0.112888 0.139229,0 0.270933,-0.03763 0.395111,-0.112888 0.127941,-0.07526 0.240829,-0.182504 0.338666,-0.321734 V 77.55477 Z m 1.998127,-1.473199 0.124178,0.462844 h 0.01693 c 0.06773,-0.139229 0.163689,-0.248355 0.287867,-0.327377 0.127941,-0.08279 0.269052,-0.124178 0.423333,-0.124178 0.105363,0 0.195674,0.01881 0.270933,0.05644 l -0.112889,0.428977 c -0.06021,-0.03011 -0.133584,-0.04516 -0.220133,-0.04516 -0.210726,0 -0.36877,0.08279 -0.474133,0.248355 -0.105363,0.161807 -0.158045,0.398874 -0.158045,0.711199 v 1.399822 h -0.462844 v -1.941688 c 0,-0.19191 -0.04327,-0.440266 -0.129822,-0.745066 z m 2.590805,-0.0056 c 0.289748,0 0.509881,0.07526 0.660399,0.225778 0.154281,0.146755 0.231422,0.361244 0.231422,0.643466 v 1.269999 c 0,0.1016 0.0075,0.21637 0.02258,0.344311 0.01881,0.127941 0.03951,0.238948 0.06209,0.333022 h -0.428978 l -0.08467,-0.349956 h -0.01693 c -0.1016,0.124178 -0.223896,0.220134 -0.366889,0.287867 -0.139229,0.06773 -0.289748,0.1016 -0.451555,0.1016 -0.248355,0 -0.445911,-0.06773 -0.592666,-0.2032 -0.146756,-0.139229 -0.220134,-0.327378 -0.220134,-0.564444 0,-0.289748 0.111008,-0.517407 0.333022,-0.682977 0.225778,-0.165571 0.536223,-0.248356 0.931333,-0.248356 h 0.349955 v -0.220133 c 0,-0.19191 -0.04704,-0.336785 -0.141111,-0.434622 -0.09407,-0.09784 -0.223896,-0.146755 -0.389466,-0.146755 -0.116652,0 -0.252119,0.02258 -0.4064,0.06773 -0.154281,0.04515 -0.295392,0.105361 -0.423333,0.180622 l -0.158044,-0.344311 c 0.161807,-0.07526 0.34243,-0.137348 0.541866,-0.186266 0.199436,-0.04892 0.38194,-0.07338 0.547511,-0.07338 z m 0.169333,1.478843 c -0.297274,0 -0.52117,0.05268 -0.671688,0.158045 -0.146756,0.101599 -0.220134,0.248355 -0.220134,0.440266 0,0.135467 0.03387,0.24083 0.1016,0.316089 0.0715,0.07526 0.17686,0.112888 0.316089,0.112888 0.139229,0 0.270933,-0.03763 0.395111,-0.112888 0.127941,-0.07526 0.240829,-0.182504 0.338666,-0.321734 v -0.592666 z"
           id="path3"
           clip-path="url(#clipPath8)" /></g><text
         xml:space="preserve"
         style="font-style:normal;font-variant:normal;font-weight:normal;font-stretch:normal;font-size:5.64444px;font-family:'Showcard Gothic';-inkscape-font-specification:'Showcard Gothic';text-align:center;text-anchor:middle;fill:#3c3c3c;fill-opacity:1;stroke:#685d66;stroke-width:0;stroke-linejoin:round;stroke-miterlimit:0;stroke-dasharray:none;stroke-dashoffset:0.856063;paint-order:markers stroke fill"
         x="-73.787552"
         y="89.193741"
         id="text59"><tspan
           id="tspan59"
           style="font-style:normal;font-variant:normal;font-weight:normal;font-stretch:normal;font-family:Submariner;-inkscape-font-specification:Submariner;fill:#3c3c3c;stroke-width:0"
           x="-73.787552"
           y="89.193741">Spiegelberg</tspan></text><rect
         style="fill:#3c3c3c;stroke:#685d66;stroke-width:0;stroke-linejoin:round;stroke-miterlimit:0;stroke-dashoffset:0.856063;paint-order:markers stroke fill"
         id="rect3"
         width="12.465108"
         height="0.50688636"
         x="-101.42363"
         y="87.419121"
         ry="0.25344318" /><rect
         style="fill:#3c3c3c;stroke:#685d66;stroke-width:0;stroke-linejoin:round;stroke-miterlimit:0;stroke-dashoffset:0.856063;paint-order:markers stroke fill"
         id="rect3-6"
         width="12.464999"
         height="0.50688636"
         x="-59.026207"
         y="87.419121"
         ry="0.25344318" /><g
         id="g10"
         transform="translate(-0.0597371,-0.41815973)"><path
           style="fill:#3c3c3c;stroke:#000000;stroke-width:0;stroke-linejoin:round;stroke-miterlimit:0;stroke-dashoffset:0.856063;stroke-opacity:0.92549;paint-order:markers stroke fill"
           id="path10"
           d="m -78.144943,93.941691 10.243824,17.742829 -20.487649,0 z"
           transform="matrix(0.58575656,0,0,0.60932438,-31.47562,14.506962)" /><path
           style="fill:#635d5a;stroke:#000000;stroke-width:0;stroke-linejoin:round;stroke-miterlimit:0;stroke-dashoffset:0.856063;stroke-opacity:0.92549;paint-order:markers stroke fill"
           id="path10-8"
           d="m -78.144943,93.941691 10.243824,17.742829 -20.487649,0 z"
           transform="matrix(0.42957075,0,0,0.42957075,-43.680752,33.76999)" /><path
           style="fill:#8d837d;stroke:#000000;stroke-width:0;stroke-linejoin:round;stroke-miterlimit:0;stroke-dashoffset:0.856063;stroke-opacity:0.92549;paint-order:markers stroke fill"
           id="path10-8-7"
           d="m -78.144943,93.941691 10.243824,17.742829 -20.487649,0 z"
           transform="matrix(0.25539146,0,0,0.25539146,-57.24256,52.392923)" /></g></g></g></svg>
